<?xml version="1.0" encoding="utf-8"?>
<!-- Generator: Adobe Illustrator 24.0.0, SVG Export Plug-In . SVG Version: 6.00 Build 0)  -->
<svg version="1.1" id="Icons" xmlns="http://www.w3.org/2000/svg" xmlns:xlink="http://www.w3.org/1999/xlink" x="0px" y="0px"
	 viewBox="0 0 32 32" style="enable-background:new 0 0 32 32;" xml:space="preserve">
<style type="text/css">
	.st0{fill:none;stroke:url(#SVGID_1_);stroke-miterlimit:10;}
	.st1{fill:none;stroke:url(#SVGID_2_);stroke-miterlimit:10;}
</style>
<linearGradient id="SVGID_1_" gradientUnits="userSpaceOnUse" x1="20.5" y1="5.5" x2="20.5" y2="19.5" gradientTransform="matrix(1 0 0 -1 0 34)">
	<stop  offset="0" style="stop-color:#04A5F3"/>
	<stop  offset="1" style="stop-color:#28F19E"/>
</linearGradient>
<path class="st0" d="M22.4,15c-3.1,0-5.7,2.2-6.4,5.1l0,0c-2.2,0-4,1.8-4,4s1.8,4,4,4h6.4c3.6,0,6.6-2.9,6.6-6.5S26.1,15,22.4,15z"
	/>
<linearGradient id="SVGID_2_" gradientUnits="userSpaceOnUse" x1="17" y1="11.5" x2="17" y2="30.5" gradientTransform="matrix(1 0 0 -1 0 34)">
	<stop  offset="0" style="stop-color:#04A5F3"/>
	<stop  offset="1" style="stop-color:#28F19E"/>
</linearGradient>
<path class="st1" d="M27.7,17.6c0.8-1.3,1.3-2.9,1.3-4.6c0-5-4-9-9-9c-4.3,0-7.9,3-8.8,7h-0.7c-3,0-5.5,2.5-5.5,5.5S7.5,22,10.5,22
	H12"/>
</svg>
