<?xml version="1.0" encoding="utf-8"?>
<!-- Generator: Adobe Illustrator 24.0.0, SVG Export Plug-In . SVG Version: 6.00 Build 0)  -->
<svg version="1.1" id="Icons" xmlns="http://www.w3.org/2000/svg" xmlns:xlink="http://www.w3.org/1999/xlink" x="0px" y="0px"
	 viewBox="0 0 32 32" style="enable-background:new 0 0 32 32;" xml:space="preserve">
<style type="text/css">
	.st0{fill:none;stroke:url(#SVGID_1_);stroke-miterlimit:10;}
	.st1{fill:none;stroke:url(#SVGID_2_);stroke-miterlimit:10;}
	.st2{fill:none;stroke:url(#SVGID_3_);stroke-miterlimit:10;}
	.st3{fill:none;stroke:url(#SVGID_4_);stroke-miterlimit:10;}
	.st4{clip-path:url(#SVGID_6_);fill:#04A5F3;}
	.st5{clip-path:url(#SVGID_6_);fill:#28F19E;}
</style>
<linearGradient id="SVGID_1_" gradientUnits="userSpaceOnUse" x1="16.9438" y1="29.5" x2="16.9438" y2="4.5">
	<stop  offset="0" style="stop-color:#04A5F3"/>
	<stop  offset="1" style="stop-color:#28F19E"/>
</linearGradient>
<path class="st0" d="M17,5c-0.3,0-0.5,0-0.8,0C19,6.6,21,9.6,21,13c0,5-4,9-9,9c-2.7,0-5.2-1.2-6.8-3.2C6,24.6,11,29,17,29
	c6.6,0,12-5.4,12-12S23.6,5,17,5z"/>
<g>
	<linearGradient id="SVGID_2_" gradientUnits="userSpaceOnUse" x1="7" y1="15.1399" x2="7" y2="2.8601">
		<stop  offset="0" style="stop-color:#04A5F3"/>
		<stop  offset="1" style="stop-color:#28F19E"/>
	</linearGradient>
	<path class="st1" d="M11,9c-2.6,0.6-3.4,1.4-4,4c-0.6-2.6-1.4-3.4-4-4c2.6-0.6,3.4-1.4,4-4C7.6,7.6,8.4,8.4,11,9z"/>
</g>
<linearGradient id="SVGID_3_" gradientUnits="userSpaceOnUse" x1="12" y1="16" x2="12" y2="14">
	<stop  offset="0" style="stop-color:#04A5F3"/>
	<stop  offset="1" style="stop-color:#28F19E"/>
</linearGradient>
<line class="st2" x1="12" y1="14" x2="12" y2="16"/>
<linearGradient id="SVGID_4_" gradientUnits="userSpaceOnUse" x1="12" y1="15.5" x2="12" y2="14.5">
	<stop  offset="0" style="stop-color:#04A5F3"/>
	<stop  offset="1" style="stop-color:#28F19E"/>
</linearGradient>
<line class="st3" x1="11" y1="15" x2="13" y2="15"/>
<g id="Disegno_1_1_">
	<g>
		<defs>
			<rect id="SVGID_5_" x="420" y="-60" width="94" height="34.6"/>
		</defs>
		<clipPath id="SVGID_6_">
			<use xlink:href="#SVGID_5_"  style="overflow:visible;"/>
		</clipPath>
		<rect x="420" y="-60" class="st4" width="56.9" height="34.6"/>
		<rect x="476.9" y="-60" class="st5" width="37.1" height="31.7"/>
	</g>
</g>
</svg>
