<?xml version="1.0" encoding="utf-8"?>
<!-- Generator: Adobe Illustrator 24.0.0, SVG Export Plug-In . SVG Version: 6.00 Build 0)  -->
<svg version="1.1" id="Icons" xmlns="http://www.w3.org/2000/svg" xmlns:xlink="http://www.w3.org/1999/xlink" x="0px" y="0px"
	 viewBox="0 0 32 32" style="enable-background:new 0 0 32 32;" xml:space="preserve">
<style type="text/css">
	.st0{fill:none;stroke:url(#SVGID_1_);stroke-width:2;stroke-linecap:round;stroke-linejoin:round;stroke-miterlimit:10;}
	.st1{fill:none;stroke:url(#SVGID_2_);stroke-width:2;stroke-linecap:round;stroke-linejoin:round;stroke-miterlimit:10;}
	.st2{fill:none;stroke:url(#SVGID_3_);stroke-width:2;stroke-linecap:round;stroke-linejoin:round;stroke-miterlimit:10;}
	.st3{fill:none;stroke:url(#SVGID_4_);stroke-width:2;stroke-linecap:round;stroke-linejoin:round;stroke-miterlimit:10;}
</style>
<linearGradient id="SVGID_1_" gradientUnits="userSpaceOnUse" x1="14" y1="4" x2="14" y2="12" gradientTransform="matrix(1 0 0 -1 0 34)">
	<stop  offset="0" style="stop-color:#04A5F3"/>
	<stop  offset="1" style="stop-color:#28F19E"/>
</linearGradient>
<line class="st0" x1="14" y1="29" x2="14" y2="23"/>
<linearGradient id="SVGID_2_" gradientUnits="userSpaceOnUse" x1="10" y1="6" x2="10" y2="14" gradientTransform="matrix(1 0 0 -1 0 34)">
	<stop  offset="0" style="stop-color:#04A5F3"/>
	<stop  offset="1" style="stop-color:#28F19E"/>
</linearGradient>
<line class="st1" x1="10" y1="27" x2="10" y2="21"/>
<linearGradient id="SVGID_3_" gradientUnits="userSpaceOnUse" x1="18" y1="6" x2="18" y2="14" gradientTransform="matrix(1 0 0 -1 0 34)">
	<stop  offset="0" style="stop-color:#04A5F3"/>
	<stop  offset="1" style="stop-color:#28F19E"/>
</linearGradient>
<line class="st2" x1="18" y1="27" x2="18" y2="21"/>
<linearGradient id="SVGID_4_" gradientUnits="userSpaceOnUse" x1="15" y1="10" x2="15" y2="30" gradientTransform="matrix(1 0 0 -1 0 34)">
	<stop  offset="0" style="stop-color:#04A5F3"/>
	<stop  offset="1" style="stop-color:#28F19E"/>
</linearGradient>
<path class="st3" d="M18,23c5,0,9-4,9-9s-4-9-9-9c-4.3,0-7.9,3-8.8,7H8.5c-3,0-5.5,2.5-5.5,5.5S5.5,23,8.5,23H10"/>
</svg>
