<?xml version="1.0" encoding="utf-8"?>
<!-- Generator: Adobe Illustrator 24.0.0, SVG Export Plug-In . SVG Version: 6.00 Build 0)  -->
<svg version="1.1" id="Icons" xmlns="http://www.w3.org/2000/svg" xmlns:xlink="http://www.w3.org/1999/xlink" x="0px" y="0px"
	 viewBox="0 0 32 32" style="enable-background:new 0 0 32 32;" xml:space="preserve">
<style type="text/css">
	.st0{fill:none;stroke:url(#SVGID_1_);stroke-width:2;stroke-linecap:round;stroke-linejoin:round;stroke-miterlimit:10;}
	.st1{fill:none;stroke:url(#SVGID_2_);stroke-width:2;stroke-linecap:round;stroke-linejoin:round;stroke-miterlimit:10;}
	.st2{fill:none;stroke:url(#SVGID_3_);stroke-width:2;stroke-linecap:round;stroke-linejoin:round;stroke-miterlimit:10;}
	.st3{fill:none;stroke:url(#SVGID_4_);stroke-width:2;stroke-linecap:round;stroke-linejoin:round;stroke-miterlimit:10;}
	.st4{fill:none;stroke:url(#SVGID_5_);stroke-width:2;stroke-linecap:round;stroke-linejoin:round;stroke-miterlimit:10;}
	.st5{fill:none;stroke:url(#SVGID_6_);stroke-width:2;stroke-linecap:round;stroke-linejoin:round;stroke-miterlimit:10;}
</style>
<linearGradient id="SVGID_1_" gradientUnits="userSpaceOnUse" x1="18.5" y1="4" x2="18.5" y2="22" gradientTransform="matrix(1 0 0 -1 0 34)">
	<stop  offset="0" style="stop-color:#04A5F3"/>
	<stop  offset="1" style="stop-color:#28F19E"/>
</linearGradient>
<path class="st0" d="M21.1,13c-3.8,0-6.9,2.7-7.7,6.2h-0.6c-2.7,0-4.8,2.2-4.8,4.9s2.2,4.9,4.8,4.9h1.3h7c4.4,0,7.9-3.6,7.9-8
	S25.5,13,21.1,13z"/>
<linearGradient id="SVGID_2_" gradientUnits="userSpaceOnUse" x1="4" y1="19" x2="4" y2="21" gradientTransform="matrix(1 0 0 -1 0 34)">
	<stop  offset="0" style="stop-color:#04A5F3"/>
	<stop  offset="1" style="stop-color:#28F19E"/>
</linearGradient>
<line class="st1" x1="5" y1="14" x2="3" y2="14"/>
<linearGradient id="SVGID_3_" gradientUnits="userSpaceOnUse" x1="21.1" y1="25.36" x2="21.1" y2="28.78" gradientTransform="matrix(1 0 0 -1 0 34)">
	<stop  offset="0" style="stop-color:#04A5F3"/>
	<stop  offset="1" style="stop-color:#28F19E"/>
</linearGradient>
<line class="st2" x1="20.4" y1="7.6" x2="21.8" y2="6.2"/>
<linearGradient id="SVGID_4_" gradientUnits="userSpaceOnUse" x1="14" y1="28" x2="14" y2="32" gradientTransform="matrix(1 0 0 -1 0 34)">
	<stop  offset="0" style="stop-color:#04A5F3"/>
	<stop  offset="1" style="stop-color:#28F19E"/>
</linearGradient>
<line class="st3" x1="14" y1="5" x2="14" y2="3"/>
<linearGradient id="SVGID_5_" gradientUnits="userSpaceOnUse" x1="6.9" y1="25.36" x2="6.9" y2="28.78" gradientTransform="matrix(1 0 0 -1 0 34)">
	<stop  offset="0" style="stop-color:#04A5F3"/>
	<stop  offset="1" style="stop-color:#28F19E"/>
</linearGradient>
<line class="st4" x1="7.6" y1="7.6" x2="6.2" y2="6.2"/>
<linearGradient id="SVGID_6_" gradientUnits="userSpaceOnUse" x1="13.95" y1="13.57" x2="13.95" y2="27" gradientTransform="matrix(1 0 0 -1 0 34)">
	<stop  offset="0" style="stop-color:#04A5F3"/>
	<stop  offset="1" style="stop-color:#28F19E"/>
</linearGradient>
<path class="st5" d="M11.4,19.4c-2-1-3.4-3-3.4-5.4c0-3.3,2.7-6,6-6c3,0,5.5,2.2,5.9,5.1"/>
</svg>
