<?xml version="1.0" encoding="utf-8"?>
<!-- Generator: Adobe Illustrator 23.0.3, SVG Export Plug-In . SVG Version: 6.00 Build 0)  -->
<svg version="1.1" id="Capa_1" xmlns="http://www.w3.org/2000/svg" xmlns:xlink="http://www.w3.org/1999/xlink" x="0px" y="0px"
	 viewBox="0 0 294.5 294.5" style="enable-background:new 0 0 294.5 294.5;" xml:space="preserve">
<style type="text/css">
	.st0{fill:url(#SVGID_1_);}
	.st1{fill:url(#SVGID_2_);}
</style>
<g>
	<g>
		<linearGradient id="SVGID_1_" gradientUnits="userSpaceOnUse" x1="147.232" y1="1.922266e-04" x2="147.232" y2="294.465">
			<stop  offset="0" style="stop-color:#28F19E"/>
			<stop  offset="0.2114" style="stop-color:#22E5AC"/>
			<stop  offset="0.6061" style="stop-color:#13C6CF"/>
			<stop  offset="1" style="stop-color:#02A1F9"/>
		</linearGradient>
		<path class="st0" d="M174.4,32.5c-6.8-10-12.8-19.2-18.4-27.6c-0.8-1.2-2-2.4-3.2-3.2c-4.8-3.2-11.2-1.6-14.4,3.2
			c-5.2,8.4-11.2,17.2-18.4,27.6C88.4,78.9,41.2,148.9,41.2,188.9c0,29.2,12,55.6,31.2,74.8c19.2,18.8,45.6,30.8,74.8,30.8
			s55.6-12,74.8-31.2s31.2-45.6,31.2-74.8C253.2,148.5,206,78.9,174.4,32.5z M207.6,248.9c-15.6,15.6-36.8,24.8-60.4,24.8
			s-44.8-9.6-60.4-24.8C71.2,233.3,62,212.1,62,188.5c0-33.6,45.2-100.4,75.2-144.8c3.6-5.2,6.8-10.4,10-14.8
			c3.2,4.4,6.4,9.6,10,14.8c30,44.8,75.2,111.2,75.2,144.8C232.4,212.1,222.8,233.3,207.6,248.9z"/>
	</g>
</g>
<g>
	<g>
		<linearGradient id="SVGID_2_" gradientUnits="userSpaceOnUse" x1="193.0047" y1="181.2398" x2="193.0047" y2="252.6146">
			<stop  offset="0" style="stop-color:#28F19E"/>
			<stop  offset="0.2114" style="stop-color:#22E5AC"/>
			<stop  offset="0.6061" style="stop-color:#13C6CF"/>
			<stop  offset="1" style="stop-color:#02A1F9"/>
		</linearGradient>
		<path class="st1" d="M209.2,181.3c-5.6-0.4-10.4,4-10.8,9.6c-0.4,8.8-3.2,17.2-7.6,24.4c-4.4,7.2-10.8,13.6-18.4,17.6
			c-4.8,2.8-6.8,9.2-4,14c3.2,5.6,9.6,7.2,14.4,4.4c10.8-6,19.6-14.8,25.6-24.8c6.4-10,10-22,10.4-34.4
			C219.2,186.5,214.8,181.7,209.2,181.3z"/>
	</g>
</g>
</svg>
