<?xml version="1.0" encoding="utf-8"?>
<!-- Generator: Adobe Illustrator 23.0.3, SVG Export Plug-In . SVG Version: 6.00 Build 0)  -->
<svg version="1.1" id="Layer_1" xmlns="http://www.w3.org/2000/svg" xmlns:xlink="http://www.w3.org/1999/xlink" x="0px" y="0px"
	 viewBox="0 0 512 512" style="enable-background:new 0 0 512 512;" xml:space="preserve">
<style type="text/css">
	.st0{fill:url(#SVGID_1_);}
	.st1{fill:url(#SVGID_2_);}
	.st2{fill:url(#SVGID_3_);}
	.st3{fill:url(#SVGID_4_);}
	.st4{fill:url(#SVGID_5_);}
</style>
<g>
	<linearGradient id="SVGID_1_" gradientUnits="userSpaceOnUse" x1="309.9995" y1="42.294" x2="309.9995" y2="256.192">
		<stop  offset="1.117318e-02" style="stop-color:#28F19E"/>
		<stop  offset="0.1938" style="stop-color:#26ECA3"/>
		<stop  offset="0.4188" style="stop-color:#1FDFB2"/>
		<stop  offset="0.6661" style="stop-color:#15C9CB"/>
		<stop  offset="0.9275" style="stop-color:#07ABEE"/>
		<stop  offset="1" style="stop-color:#02A1F9"/>
	</linearGradient>
	<path class="st0" d="M405.1,42.3c-24.3,0-48,8.4-67,23.6c-6.5,5.2-7.5,14.6-2.3,21.1c5.2,6.5,14.6,7.5,21.1,2.3
		c13.6-10.9,30.7-16.9,48.2-16.9c42.4,0,76.9,34.5,76.9,76.9s-34.5,76.9-76.9,76.9H123c-8.3,0-15,6.7-15,15s6.7,15,15,15h282.1
		c59,0,106.9-48,106.9-106.9S464,42.3,405.1,42.3L405.1,42.3z"/>
	<linearGradient id="SVGID_2_" gradientUnits="userSpaceOnUse" x1="174.3805" y1="166.293" x2="174.3805" y2="196.293">
		<stop  offset="1.117318e-02" style="stop-color:#28F19E"/>
		<stop  offset="0.1938" style="stop-color:#26ECA3"/>
		<stop  offset="0.4188" style="stop-color:#1FDFB2"/>
		<stop  offset="0.6661" style="stop-color:#15C9CB"/>
		<stop  offset="0.9275" style="stop-color:#07ABEE"/>
		<stop  offset="1" style="stop-color:#02A1F9"/>
	</linearGradient>
	<path class="st1" d="M94.3,196.3h160.2c8.3,0,15-6.7,15-15s-6.7-15-15-15H94.3c-8.3,0-15,6.7-15,15S86,196.3,94.3,196.3z"/>
	<linearGradient id="SVGID_3_" gradientUnits="userSpaceOnUse" x1="171.001" y1="286.294" x2="171.001" y2="469.705">
		<stop  offset="1.117318e-02" style="stop-color:#28F19E"/>
		<stop  offset="0.1938" style="stop-color:#26ECA3"/>
		<stop  offset="0.4188" style="stop-color:#1FDFB2"/>
		<stop  offset="0.6661" style="stop-color:#15C9CB"/>
		<stop  offset="0.9275" style="stop-color:#07ABEE"/>
		<stop  offset="1" style="stop-color:#02A1F9"/>
	</linearGradient>
	<path class="st2" d="M250.3,286.3H15c-8.3,0-15,6.7-15,15s6.7,15,15,15h235.3c34,0,61.7,27.7,61.7,61.7s-27.7,61.7-61.7,61.7
		c-14,0-27.7-4.8-38.6-13.6c-6.5-5.2-15.9-4.2-21.1,2.3s-4.2,15.9,2.3,21.1c16.2,13,36.6,20.2,57.4,20.2c50.6,0,91.7-41.1,91.7-91.7
		S300.9,286.3,250.3,286.3L250.3,286.3z"/>
	<linearGradient id="SVGID_4_" gradientUnits="userSpaceOnUse" x1="25.1175" y1="166.293" x2="25.1175" y2="196.293">
		<stop  offset="1.117318e-02" style="stop-color:#28F19E"/>
		<stop  offset="0.1938" style="stop-color:#26ECA3"/>
		<stop  offset="0.4188" style="stop-color:#1FDFB2"/>
		<stop  offset="0.6661" style="stop-color:#15C9CB"/>
		<stop  offset="0.9275" style="stop-color:#07ABEE"/>
		<stop  offset="1" style="stop-color:#02A1F9"/>
	</linearGradient>
	<path class="st3" d="M15,196.3h20.2c8.3,0,15-6.7,15-15s-6.7-15-15-15H15c-8.3,0-15,6.7-15,15S6.7,196.3,15,196.3z"/>
	<linearGradient id="SVGID_5_" gradientUnits="userSpaceOnUse" x1="136" y1="346.001" x2="136" y2="376.001">
		<stop  offset="1.117318e-02" style="stop-color:#28F19E"/>
		<stop  offset="0.1938" style="stop-color:#26ECA3"/>
		<stop  offset="0.4188" style="stop-color:#1FDFB2"/>
		<stop  offset="0.6661" style="stop-color:#15C9CB"/>
		<stop  offset="0.9275" style="stop-color:#07ABEE"/>
		<stop  offset="1" style="stop-color:#02A1F9"/>
	</linearGradient>
	<path class="st4" d="M196,361c0-8.3-6.7-15-15-15H91c-8.3,0-15,6.7-15,15s6.7,15,15,15h90C189.3,376,196,369.3,196,361z"/>
</g>
</svg>
